<svg id="Layer_1" data-name="Layer 1" xmlns="http://www.w3.org/2000/svg" viewBox="0 0 841.89 595.28"><defs><style>.cls-1,.cls-2,.cls-3,.cls-5,.cls-6,.cls-8{fill:none;stroke-miterlimit:10;}.cls-1,.cls-2,.cls-5,.cls-6,.cls-8{stroke:#dfebda;stroke-linecap:round;}.cls-1{stroke-width:2px;}.cls-2{stroke-width:1.5px;}.cls-3{stroke:#f37442;stroke-width:3px;}.cls-4{fill:#f37442;}.cls-5{stroke-width:1.21px;}.cls-6{stroke-width:3.19px;}.cls-7,.cls-9{fill:#dfebda;}.cls-8{stroke-width:1.25px;}.cls-9{font-size:12px;font-family:MyriadPro-Regular, Myriad Pro;}</style></defs><title>بالن</title><path class="cls-1" d="M28.65,552V411.29"/><path class="cls-1" d="M54.78,520.17C51.95,520,35,519.3,28.43,494.69"/><path class="cls-1" d="M51.73,499.27c-2-.22-17.06,1.52-22.94-23.08"/><path class="cls-1" d="M48.46,480.32c-2.18,0-14.59-1.31-19.82-18.08"/><path class="cls-1" d="M44.33,462.25a20.27,20.27,0,0,1-15.68-15.68"/><path class="cls-1" d="M42.58,446.78c-1.52,0-8.06.87-13.94-12.2"/><path class="cls-1" d="M40.62,432.85S31,432,28.86,422.18"/><path class="cls-1" d="M38,420.87c-2,0-7.62-.15-9.36-7.11"/><path class="cls-1" d="M2.08,520.61c2.83-.22,19.82-1.31,26.35-25.92"/><path class="cls-1" d="M5.13,499.7c2-.22,17.78,1.09,23.66-23.52"/><path class="cls-1" d="M8.39,480.76c2.18,0,15-1.74,20.25-18.51"/><path class="cls-1" d="M12.53,462.68a21.41,21.41,0,0,0,16.12-16.12"/><path class="cls-1" d="M14.27,447.22c1.52,0,8.06.87,13.94-12.2"/><path class="cls-1" d="M16.23,433.28s10.09-.73,12.27-10.53"/><path class="cls-1" d="M18.85,421.3a9.65,9.65,0,0,0,9.8-7.55"/><path class="cls-2" d="M527.45,573.64v-83.1"/><path class="cls-2" d="M547,572c-2.12-.16-14.56-.71-19.45-19.12"/><path class="cls-2" d="M544.72,556.36c-1.47-.16-12.76,1-17.16-17.38"/><path class="cls-2" d="M542.27,542.19c-1.63,0-10.92-1-14.83-13.52"/><path class="cls-2" d="M539.18,528.66a15.17,15.17,0,0,1-11.73-11.73"/><path class="cls-2" d="M537.87,517.09c-1.14,0-6,.65-10.43-9.13"/><path class="cls-2" d="M536.41,506.66a10.3,10.3,0,0,1-8.8-8"/><path class="cls-2" d="M534.45,497.7c-1.47,0-5.7-1-7-6.19"/><path class="cls-2" d="M507.57,572.33c2.12-.16,14.83-1,19.72-19.39"/><path class="cls-2" d="M509.85,556.69c1.47-.16,13,.65,17.44-17.76"/><path class="cls-2" d="M512.29,542.51c1.63,0,11.24-1.3,15.15-13.85"/><path class="cls-2" d="M515.39,529a16,16,0,0,0,12.06-12.06"/><path class="cls-2" d="M516.69,517.42c1.14,0,6,.65,10.43-9.13"/><path class="cls-2" d="M518.16,507s7.82-1,9.45-8.31"/><path class="cls-2" d="M520.11,498a8.33,8.33,0,0,0,7.33-6.52"/><path class="cls-1" d="M784.14,576.64V465.57"/><path class="cls-1" d="M810.27,574.46c-2.83-.22-19.45-.94-26-25.55"/><path class="cls-1" d="M807.22,553.55c-2-.22-17.06,1.38-22.94-23.23"/><path class="cls-1" d="M804,534.61c-2.18,0-14.59-1.31-19.82-18.08"/><path class="cls-1" d="M799.81,516.53a20.27,20.27,0,0,1-15.68-15.68"/><path class="cls-1" d="M798.07,501.07c-1.52,0-8.06.87-13.94-12.2"/><path class="cls-1" d="M796.11,487.13s-9.58-.87-11.76-10.67"/><path class="cls-1" d="M793.5,475.15c-2,0-7.62-1.31-9.36-8.28"/><path class="cls-1" d="M757.57,574.89c2.83-.22,19.82-1.31,26.35-25.92"/><path class="cls-1" d="M760.62,554c2-.22,17.42.87,23.3-23.74"/><path class="cls-1" d="M763.88,535c2.18,0,15-1.74,20.25-18.51"/><path class="cls-1" d="M768,517a21.41,21.41,0,0,0,16.12-16.12"/><path class="cls-1" d="M769.76,501.5c1.52,0,8.06.87,13.94-12.2"/><path class="cls-1" d="M771.72,487.57s10.45-1.31,12.63-11.11"/><path class="cls-1" d="M774.34,475.59a11.14,11.14,0,0,0,9.8-8.71"/><path class="cls-1" d="M485.11,541.18V473"/><path class="cls-1" d="M498.57,529.13c-1.46-.11-10.21-.67-13.57-13.35"/><path class="cls-1" d="M497,518.36c-1-.11-9,.45-12-12.23"/><path class="cls-1" d="M495.32,508.6c-1.12,0-7.52-.67-10.21-9.31"/><path class="cls-1" d="M493.19,499.28a10.44,10.44,0,0,1-8.08-8.08"/><path class="cls-1" d="M492.29,491.32c-.79,0-4.15.45-7.18-6.28"/><path class="cls-1" d="M491.28,484.14a7.09,7.09,0,0,1-6.06-5.5"/><path class="cls-1" d="M489.94,478a5.23,5.23,0,0,1-4.82-4.26"/><path class="cls-1" d="M471.43,529.35c1.46-.11,10.21-.67,13.57-13.35"/><path class="cls-1" d="M473,518.58c1-.11,9,.45,12-12.23"/><path class="cls-1" d="M474.68,508.82c1.12,0,7.74-.9,10.43-9.54"/><path class="cls-1" d="M476.81,499.51a10.44,10.44,0,0,0,8.08-8.08"/><path class="cls-1" d="M477.71,491.54c.79,0,4.15.45,7.18-6.28"/><path class="cls-1" d="M478.72,484.36s5.38-.67,6.51-5.72"/><path class="cls-1" d="M480.06,478.19a5.23,5.23,0,0,0,4.82-4.26"/><path class="cls-1" d="M59.13,532.81c0-1.85,0-149.83,0-149.83"/><path class="cls-1" d="M78.46,496.19c-6.84-2.83-15.28-9.37-19.61-24.79"/><path class="cls-1" d="M85,476.25c-2.2-.23-19.29.91-25.9-25.18"/><path class="cls-1" d="M81.36,456.16c-2.45,0-16.4-1.39-22.27-19.16"/><path class="cls-1" d="M76.71,437c-2.2-.23-14.44-3.46-17.62-16.62"/><path class="cls-1" d="M74.75,420.61c-1.71,0-9.06.92-15.67-12.93"/><path class="cls-1" d="M72.55,405.83s-10.77-.92-13.22-11.31"/><path class="cls-1" d="M69.61,393.13a11.29,11.29,0,0,1-10.53-8.77"/><path class="cls-1" d="M29.23,498.87c3.18-.23,22.27-1.39,29.62-27.47"/><path class="cls-1" d="M32.65,476.71c2.2-.23,19.58.92,26.19-25.17"/><path class="cls-1" d="M36.32,456.62c2.45,0,16.89-1.85,22.76-19.62"/><path class="cls-1" d="M41,437.46c2.2-.23,15-3.29,18.16-16.45"/><path class="cls-1" d="M42.93,421.07c1.71,0,9.45,1.31,16.06-12.54"/><path class="cls-1" d="M45.14,406.29s11.4-.73,13.85-11.12"/><path class="cls-1" d="M48.07,393.6c2.2,0,9.1-1.2,11.06-8.59"/><path class="cls-1" d="M95.07,441.34s.22,31.8,0,34.63"/><line class="cls-1" x1="102.33" y1="463.44" x2="95.57" y2="456.69"/><line class="cls-1" x1="103.31" y1="457.27" x2="95.68" y2="449.65"/><path class="cls-1" d="M103.12,449.4l-8.06-8.06"/><line class="cls-1" x1="94.99" y1="441.34" x2="87.83" y2="448.58"/><line class="cls-1" x1="95.28" y1="449.36" x2="87.66" y2="456.98"/><path class="cls-1" d="M94.81,456.51l-7,6.93"/><path class="cls-1" d="M115,438.29s.29,31,.07,33.83"/><line class="cls-1" x1="122.22" y1="460.4" x2="115.46" y2="453.64"/><line class="cls-1" x1="123.2" y1="454.22" x2="115.57" y2="446.6"/><path class="cls-1" d="M123,446.35,115,438.29"/><line class="cls-1" x1="114.88" y1="438.29" x2="107.72" y2="445.53"/><line class="cls-1" x1="115.17" y1="446.31" x2="107.55" y2="453.93"/><path class="cls-1" d="M114.7,453.46l-7,6.93"/><path class="cls-1" d="M168.31,441.27s.22,16.62,0,19.45"/><line class="cls-1" x1="176.55" y1="457.2" x2="168.93" y2="449.58"/><path class="cls-1" d="M176.37,449.32l-8.06-8.06"/><line class="cls-1" x1="168.24" y1="441.27" x2="161.07" y2="448.51"/><line class="cls-1" x1="168.53" y1="449.29" x2="160.91" y2="456.91"/><path class="cls-1" d="M300.07,520.17s.15,30.05-.07,32.88"/><line class="cls-1" x1="307.32" y1="542.28" x2="300.57" y2="535.53"/><line class="cls-1" x1="308.3" y1="536.11" x2="300.68" y2="528.49"/><path class="cls-1" d="M308.12,528.23l-8.06-8.06"/><line class="cls-1" x1="299.99" y1="520.17" x2="292.82" y2="527.42"/><line class="cls-1" x1="300.28" y1="528.2" x2="292.66" y2="535.82"/><path class="cls-1" d="M299.81,535.35l-7,6.93"/><path class="cls-1" d="M317.49,519.59s.36,30.2.15,33"/><line class="cls-1" x1="324.75" y1="541.7" x2="318" y2="534.95"/><line class="cls-1" x1="325.73" y1="535.53" x2="318.1" y2="527.91"/><path class="cls-1" d="M325.55,527.65l-8.06-8.06"/><line class="cls-1" x1="317.42" y1="519.59" x2="310.25" y2="526.83"/><line class="cls-1" x1="317.71" y1="527.61" x2="310.08" y2="535.24"/><path class="cls-1" d="M317.23,534.77l-7,6.93"/><path class="cls-1" d="M617.92,533.49s.22,31.8,0,34.63"/><line class="cls-1" x1="625.18" y1="555.6" x2="618.43" y2="548.85"/><line class="cls-1" x1="626.16" y1="549.43" x2="618.54" y2="541.81"/><path class="cls-1" d="M626,541.55l-8.06-8.06"/><line class="cls-1" x1="617.85" y1="533.49" x2="610.68" y2="540.74"/><line class="cls-1" x1="618.14" y1="541.52" x2="610.52" y2="549.14"/><path class="cls-1" d="M617.67,548.67l-7,6.93"/><path class="cls-1" d="M753.25,545.83s.22,31.8,0,34.63"/><line class="cls-1" x1="760.51" y1="567.93" x2="753.76" y2="561.18"/><line class="cls-1" x1="761.49" y1="561.76" x2="753.87" y2="554.14"/><path class="cls-1" d="M761.31,553.89l-8.06-8.06"/><line class="cls-1" x1="753.18" y1="545.83" x2="746.01" y2="553.07"/><line class="cls-1" x1="753.47" y1="553.85" x2="745.85" y2="561.47"/><path class="cls-1" d="M753,561l-7,6.93"/><path class="cls-3" d="M48.46,552.19c1.19-2,34.33-61.77,40.42-72.75a4.3,4.3,0,0,1,2.89-2.13l87.72-18.21c.68-.14,1.13,1.35.87,2L141,552.41Z"/><path class="cls-3" d="M169.26,551.75l-7.13-3.64a2.31,2.31,0,0,1-1.44-2.83l15.61-49Z"/><path class="cls-3" d="M192.56,551.24l7.65-4.73a2.56,2.56,0,0,0,1-2.9L186,496.94Z"/><polygon class="cls-3" points="180.44 463.55 169.47 551.97 223.12 552.4 180.94 461.52 180.44 463.55"/><polygon class="cls-3" points="181.96 464.21 192.7 551.68 141.02 552.4 180.36 461.08 181.96 464.21"/><path class="cls-1" d="M131,486.2c-.87,2-13.28,33.54-44.64,41.81"/><path class="cls-1" d="M104.21,511.68c-1.31,1.74-9.8,8.06-13.5,8.49"/><rect class="cls-4" x="45.6" y="545.33" width="4.14" height="8.49" rx="1.19" ry="1.19"/><rect class="cls-4" x="138.84" y="544.35" width="3.7" height="8.06" rx="1.06" ry="1.06"/><rect class="cls-4" x="221.67" y="546.15" width="4.14" height="7.84" rx="1.19" ry="1.19"/><path class="cls-1" d="M124.47,452l29.7-29.49a2.36,2.36,0,0,1,3.33,0l29.29,29.09a2.42,2.42,0,0,0,3.41,0l5-5,30.85,29.82a2,2,0,0,0,3-.18l17.07-21.11a2.37,2.37,0,0,1,3.64-.05l25.81,30.07,6.12-6.47a2.13,2.13,0,0,1,3-.05l30.9,30.48"/><path class="cls-1" d="M139.06,437.64l.53.62a2.87,2.87,0,0,0,4.27.1l2.68-2.86a2.38,2.38,0,0,1,3.41-.07l6.34,6.2a3.22,3.22,0,0,0,4.62-.13l5.62-6.14a2.21,2.21,0,0,1,3.13-.13l6.86,6.33,5.14-5.14a2,2,0,0,1,2.83,0l11.84,11.07"/><path class="cls-1" d="M235.31,469l10.17-2.11a2.88,2.88,0,0,1,2.45.62L260.36,478a2.32,2.32,0,0,0,1.5.55h7.21l10.56,10.95a1.65,1.65,0,0,0,2.39,0l1.86-2a2.39,2.39,0,0,1,1.61-.75l7.1-.38"/><path class="cls-1" d="M231.61,550.88c.22-1.09,1.74-3.7,4.79-5.66s11.32-8.49,11.32-8.49,8.17-.65,7.73,5c-4.57,3.48-13.18,9.58-13.18,9.58Z"/><path class="cls-4" d="M240.76,541.52c1.38.75-4.79-7.19-4.14-12.85s7-11.32,7.84-11.54c-.65,3-1.09,10.89,3.7,15.46,2.61.22,7.84-4.57,7.84-4.57s2.13,7.9-.16,11.41c0,0,0,.05,0,0,2.24-1.37,10.69-8,6.61-24.39a1,1,0,0,0-1.51-.53,26.86,26.86,0,0,1-6.63,3.9.65.65,0,0,1-.79-.94c3.2-5.3,9.74-16.74-6.4-26.63a1.37,1.37,0,0,0-2.09,1.07c-.26,5.35-1.8,11.5-10.19,19.31C225.3,520.17,230.31,535.85,240.76,541.52Z"/><path class="cls-1" d="M226.82,528c-1.09-2.61-3.27-7.62-.22-11.54"/><path class="cls-1" d="M230.31,506.67c2.83-1.31,8.28-5.23,8.71-10.45"/><path class="cls-1" d="M255.78,491c2,1.31,8.93,8.49,6.53,14.37"/><path class="cls-1" d="M266.89,511.68c1.31,1.52,7.19,9.36,1.52,14.59"/><path class="cls-1" d="M248.82,498c1.31,1.74,4.79,7.84,2,11.76"/><path class="cls-1" d="M239.23,537.81c.44-1.52,4.79-5,8.28-2,1.89,1.65,3.07,1.74,3.76,1.47a1.55,1.55,0,0,1,1.77.46l2.52,3.08s5.23,3.27,6.32,5.88a30.59,30.59,0,0,1,1.31,3.48L252.52,550l-4.36-2.83-5.23,3.48s.44-4.36-6.53-5.44"/><path class="cls-1" d="M252.52,550c-.22-1.74,2.18-6,7-5.88"/><path class="cls-3" d="M230.09,500.79c2-1.31,8.28-4.14-1.09-22.21s7-27.88,7-27.88"/><path class="cls-1" d="M225.3,499.05c2-2.4,2-7.84-2-13.07s-1.52-9.15-.22-10.45"/><path class="cls-1" d="M430.14,540.6a6.55,6.55,0,0,1,2.83,7.08"/><path class="cls-1" d="M434.83,537.57c3.27,3,2.54,10.19,1.52,12.3"/><path class="cls-1" d="M440.05,549.53c.54-1.52,2.18-6.64,1.85-11"/><path class="cls-1" d="M272.81,578.6a6.55,6.55,0,0,1,2.83,7.08"/><path class="cls-1" d="M277.49,574.57c3.27,3,2.54,10.19,1.52,12.3"/><path class="cls-1" d="M282.72,587.53c.54-1.52,2.18-6.64,1.85-11"/><path class="cls-1" d="M500.42,556.49c-.15-1,.58-5.66,1.6-6.82"/><path class="cls-1" d="M496.93,557.65c-.58-1.31-.44-4.94-.15-6.24"/><path class="cls-1" d="M578,534.26a8.48,8.48,0,0,0-1.31,8"/><path class="cls-1" d="M580.88,537.74a5.83,5.83,0,0,0,0,4.94"/><path class="cls-5" d="M21.73,570.55c1,1.57,2.78,6.43,2.38,8.78"/><path class="cls-5" d="M25.69,568.67c1.79,1.41,3.57,7.53,2.78,11"/><path class="cls-5" d="M37,570.24c-1.19.94-4.36,4.55-4.36,8.47"/><path class="cls-1" d="M289.39,504.93a13.76,13.76,0,0,1,3.77,8.71"/><path class="cls-1" d="M303,502.32c-1.16,2-3.77,7.55-2.9,12.2"/><path class="cls-1" d="M303.33,516c.58-2,1.16-5.81,3.19-7.84"/><path class="cls-1" d="M329.76,529.61h72.88"/><path class="cls-1" d="M302.09,571.94H375"/><path class="cls-1" d="M271.34,553h63.3"/><path class="cls-1" d="M200.67,568.65H264"/><path class="cls-1" d="M78,585h63.3"/><path class="cls-1" d="M343.4,548.49h14.81"/><path class="cls-1" d="M180.4,570.15h14.81"/><path class="cls-1" d="M363.73,548.49h36.59"/><path class="cls-1" d="M433.73,573.49h36.59"/><path class="cls-6" d="M642.4,532.82h93.23"/><path class="cls-1" d="M115.16,542.31s.15,30.05-.07,32.88"/><line class="cls-1" x1="122.42" y1="564.42" x2="115.67" y2="557.67"/><line class="cls-1" x1="123.4" y1="558.25" x2="115.78" y2="550.63"/><path class="cls-1" d="M123.22,550.37l-8.06-8.06"/><line class="cls-1" x1="115.09" y1="542.31" x2="107.92" y2="549.55"/><line class="cls-1" x1="115.38" y1="550.33" x2="107.75" y2="557.96"/><path class="cls-1" d="M114.9,557.49l-7,6.93"/><path class="cls-7" d="M311.73,324.28a62.74,62.74,0,0,0,8.28,11v-1.39c0-1.81,0-3.62,0-5.43,0-.54.14-.77.73-.72,1.27.11,1.21-.22,1.21,1.21v11.38a59.61,59.61,0,0,1-8.34-10.4c-.27.28-.18.57-.18.81v6.18c0,.66-.19.66-.75.48a1.49,1.49,0,0,1-1.16-1.69c.07-3.52,0-7,0-10.55v-.82Z"/><path class="cls-7" d="M335.48,332.44a35.17,35.17,0,0,0-1.57,3.57c-.44,1.38-1.45,1.71-2.67,1.86-.13-.25.08-.42.17-.6.92-2,1.81-4,2.78-5.93a1.08,1.08,0,0,0-.08-1.21c-.82-1.21-1.59-2.5-2.41-3.73-.3-.44-.24-.6.28-.77,1.59-.49,1.58-.51,2.46.94l1,1.72a23.63,23.63,0,0,0,1.35-3c.45-1.54,1.63-2,3.11-2.41l-.76,1.61c-.77,1.66-1.54,3.32-2.33,5a.86.86,0,0,0,.08,1c.94,1.28,1.88,2.55,2.93,3.73.34.39.27.55-.17.74-2.28,1-1.47,1.21-3-.72C336.31,333.69,335.95,333.11,335.48,332.44Z"/><path class="cls-7" d="M323.81,333.43v-5.12c0-.55.19-.76.71-.83a38.35,38.35,0,0,0,5.14-1.14c.47-.13.6,0,.63.46,0,1.25.06,1.26-1.13,1.56-.87.22-1.75.45-2.64.6-.6.1-.82.37-.75,1a3.53,3.53,0,0,1,0,.45c0,1.64-.07,1.35,1.39,1.09a23.9,23.9,0,0,0,2.41-.6c.46-.13.6,0,.57.45a4,4,0,0,0,0,.68c.05.49-.15.72-.64.82-1,.2-2,.48-3,.65-.57.09-.76.33-.74.89,0,.78,0,1.56,0,2.33,0,.43.15.6.6.49,1.1-.25,2.21-.45,3.31-.71.45-.11.6-.06.64.46,0,1.27.05,1.27-1.21,1.59a28.19,28.19,0,0,1-4.6.78c-.6,0-.69-.13-.69-.65C323.83,336.9,323.81,335.18,323.81,333.43Z"/><path class="cls-7" d="M343.84,330.31v-6.55c0-.67-.19-.72-.72-.45s-1.15.51-1.73.74c-.15.06-.31.2-.48,0s.1-1.74.43-1.88c2.31-1,4.62-2,7-2.79.44-.15.6,0,.6.41.07,1.15.07,1.17-1,1.56-1.94.69-1.94.69-2,2.74,0,2.26-.1,4.52-.11,6.78a1.3,1.3,0,0,1-.9,1.42c-1.3.54-1.27.6-1.27-.79v-1.21Z"/><path class="cls-8" d="M226.68,216.62c-.6.37-1.1,0-1.59-.3a35.71,35.71,0,0,0-10.26-3.66,38.67,38.67,0,0,0-12.6-.1,35,35,0,0,0-18.66,8.85c-4,3.67-7,8.18-7.79,13.61-1.31,9.09.8,17.2,7.89,23.6,5,4.54,11,6.82,17.53,8.24,2.09.45,4.14-.48,4.22.72.13,2.59-1.25-8.45-.43-8.83.65-.33,9.56-.14,9.38-.24"/><path class="cls-8" d="M234.35,379.38c-.25,2.94-.42,5.86.72,8.69a10.85,10.85,0,0,0,8.83,7.14,29.5,29.5,0,0,0,4.78.24h25.94a11.91,11.91,0,0,0,10.86-6,9.53,9.53,0,0,0,1.21-4c.14-1.41.22-5.21-.05-5.65"/><path class="cls-8" d="M229.32,305.13c4.22,8.21,9,17.53,13.27,25.74,1.68,3.26,3.33,6.54,5.07,10-2.62.08-2.14,2.22-2.41,3.65-.72,3.69-1.21,7.42-1.81,11.14-.18,1.15-.6,1.36-1.74,1.21a21.27,21.27,0,0,0-5.06-.45,2.39,2.39,0,0,0-2.15,2c-.07,2.51,0,5,0,7.53,0,.14.18.29.28.43"/><path class="cls-8" d="M236.38,255.28a1.87,1.87,0,0,0,1.16-.6,88.77,88.77,0,0,1,8.33-6.33,50.4,50.4,0,0,0-5.19-6.81,110,110,0,0,0-8.36-9.3c-3.35-3.1-6.64-6.33-10.86-8.23-3.94-1.76-7.93-3.26-12.43-3.29a28.11,28.11,0,0,0-19.38,7.19c-3.68,3.23-6,7.37-5.48,12.42.66,6.82,4,12.07,10.26,15.2a32,32,0,0,0,8.84,2.86c.57.1,1,.53,1.59.47"/><path class="cls-8" d="M244.35,260.36c.39,2.5,2.12,15.57,2.53,18.1.28,1.71.42,3.47.66,5.2.36,2.61.69,5.22,1.08,7.84.26,1.77,5,42,6,49,2.66.18,6.43.14,9.09.27,2.08.1,4.16.13,6.23.44"/><path class="cls-8" d="M250.42,345.2c-2.46.15-2.14,2.29-2.57,3.78-.6,2-.79,4.09-1.47,6.08-.38,1.12.23,1.81,1.43,1.88,7.19.4,14.38.31,21.58.26,1.39,0,2.79-.3,4.22-.28,1,0,1.44-.79,1.15-2s-.65-2.59-.9-3.9-.6-2.41-.84-3.62a2.28,2.28,0,0,0-2.59-2.16c-6.57.45-13.13-.53-19.69-.16"/><path class="cls-8" d="M315.29,265.13a15.69,15.69,0,0,1,10.43,4.78,16.07,16.07,0,0,1,3.16,4.5,10.79,10.79,0,0,1-1.73,11.86,13.27,13.27,0,0,1-8.68,4.37,29.81,29.81,0,0,1-12-.74"/><path class="cls-8" d="M243.9,245.46c2.16,2.91,3.94,5.23,4.22,5.62,10.3,13.69,12.89,17.05,12.86,17.24-.32,2.31,0,4.65-.16,7-.36,3.9-.83,34.68-.51,37.21.18,4,.84,22.14.73,28"/><path class="cls-8" d="M228.12,265.71c.78-.3,2.17-3.62,3.73-5-2,.19-3.75-.18-5.54.32,4.83,16.45,10.9,34.13,16,50.29"/><path class="cls-8" d="M278.08,366.49a12.28,12.28,0,0,0,1.3-.88c.6-.53,1.27-1,.6-2-.37-.54-.07-1,.4-1.45a1.45,1.45,0,0,1,1.81-.06,1.21,1.21,0,0,1,.46,1.64c-.89,1.35-.41,1.81.87,2.41,2.81,2.35,4.31,4.3,4.79,5.88a7.28,7.28,0,0,1-2.86,8.26,7.88,7.88,0,0,1-11.86-5.81,7.12,7.12,0,0,1,1.57-5.21c1-1.28,2.79-2.27,2.64-2.78a20.73,20.73,0,0,1-8,1.21,26.58,26.58,0,0,1-4.48-.67c-.48-.09-1-.13-1.46-.22"/><path class="cls-8" d="M289.1,306.82c-4.92,9.65-11,21-15.9,30.62-.33.63-.53,1.18-.82,1.83a1.71,1.71,0,0,1-1.64,1.22c-1,0-.67.52-.62,1.36.09,1.06.19,2.12.29,3.19"/><path class="cls-8" d="M232.93,307.48c1.06,2.52,11.43,21.84,16.35,32,.43.83.36.83,1.16.75s4,.46,5.33.33"/><path class="cls-8" d="M257.52,366.78a30.65,30.65,0,0,0-2.47,2.73c-3.52,4.33-2.07,8.71,1.91,10.86a7.48,7.48,0,0,0,10.41-2.74c1.42-2.35,1.06-4.4-.34-6.9a14.61,14.61,0,0,0-4.71-4.83c-.6-.41-1-1-.46-1.81.79-1.21-.08-1.89-1-2.08a1.34,1.34,0,0,0-1.57.6c-.57.74.26,1.25.45,2l-2.2,2.05"/><path class="cls-8" d="M287.51,314.37c-1.11,2.17-1.82,3-2.89,5.21-2.32,4.58-4.42,8.62-6.72,13.21,0,.08,0,.19,0,.43.86.78,4.3,1.94,6.63,2.35,2.06.27,15.59,1.06,3.22-21.51"/><path class="cls-8" d="M288.85,311.8c15.64,26.59-2.11,26.64-6.24,25.37-1.81-.56-3.81-1.31-5.92-2l-2.92,5.6c.66.6,1.59.24,1.85,1.39a12.72,12.72,0,0,1,.22,1.6c.27,2.63.93,5.19,1.25,7.81.22,1.76.6,3.49.94,5.4l4.26-.48c1.42-.16,2.9-.57,4,.73a2.11,2.11,0,0,1,.6,1.44q0,4.56,0,9.12a2.41,2.41,0,0,1-.3,1.16"/><path class="cls-8" d="M276.05,312.62a41.81,41.81,0,0,0-4.77,1c-.18,0-.39.09-.6.11-1.63.24-1.68.82-1.92,2.39-.31,2.33-3.29,22.87-3.6,24.47"/><path class="cls-8" d="M280.2,261.13a7.58,7.58,0,0,0,1.81,2.41,27.29,27.29,0,0,1,4.06,5.65,12.45,12.45,0,0,1,.42,10.86"/><path class="cls-8" d="M263.24,340.37c.6-4.15,2.83-21,3.47-26"/><path class="cls-8" d="M273.06,280.75c-.45,2.21-.81,5.29-1.21,7.55-.54,3.17-1,6.37-1.45,9.56-.42,3-.76,6-1.18,9-.24,1.74-.81,5.26-1.1,7"/><path class="cls-8" d="M241.74,311.76c.72,2.12,1.48,4.22,2.17,6.37,2.29,7.19,4.54,14.38,6.82,21.57.42,1.33-.24,2.59-.2,3.91a5.34,5.34,0,0,0,0,1.45"/><path class="cls-8" d="M278,311.55c-2.79,8.4-6.21,19.6-9,28-.13.4-.45.71-.47,1.15"/><path class="cls-8" d="M244.42,312.32c1.24,4.68,6.43,21.19,8.4,27.77"/><path class="cls-8" d="M275.48,312.69c-2,5.36-8.82,27.69-8.86,28.14"/><path class="cls-8" d="M253.49,314c.3,2.06,2.89,24.87,3.08,26.56"/><path class="cls-8" d="M287.49,280.91l5.21-15.49c.39-1.16.79-2.31,1.15-3.48a1.62,1.62,0,0,1,1.6-1.29H312.4c.1,0,.19.1.44.24-.6,1.39-1.21,2.85-1.9,4.22-2.24,4.36-4.57,8.68-6.78,13-1.57,3.1-2.85,5.77-4.35,8.91"/><path class="cls-8" d="M260.19,314.39c-.14.19-1.7,0-1.7.15-.15,3.4.64,19.79.64,26"/><path class="cls-8" d="M231,261.7c-.49.18-3.79,6.46-4.05,7-1.76,3.78-3.11,7.66-2.84,11.89a13.48,13.48,0,0,0,5.09,10.26c.32.25.28.6.6.81-1,.64-6.42.08-6.44.1-.25.2-10-3.37-10-18.76"/><path class="cls-8" d="M315.42,257.26c.07.75-.41,7.16-.46,8.45a55.61,55.61,0,0,1-2,10.14,71.54,71.54,0,0,1-6.1,13.32"/><path class="cls-8" d="M241.33,362.75c.81.34.14,1-.07,1.24-.86,1.08-.16,1.53.6,2.06,2.55,1.29,3.23,2.35,4.49,4.63a7.24,7.24,0,0,1-2.15,9.57,8,8,0,0,1-11.81-5.08c-1-3.69,2.22-7.91,4.26-8.87a8.45,8.45,0,0,0,1.45-.69,1.17,1.17,0,0,0,.69-1.73c-.36-.71-.43-1.24.18-1.75C240.73,361.17,241.33,362.75,241.33,362.75Z"/><path class="cls-8" d="M226.1,261.08c-.1-.1-.19-.28-.29-.28H215.43c-1.21,5.29-2,12.07-2.1,12.23"/><path class="cls-8" d="M218.42,253.69a1.81,1.81,0,0,0,0,2.17c.19.29,2.24,2.6,4,2.56,4.22-.09,9.18,0,13.38.1,1,0,1-.25,1.64-.75a3.21,3.21,0,0,0-1-2.21,38.12,38.12,0,0,1-5.07-9.12,4.45,4.45,0,0,0-.6-.86"/><path class="cls-8" d="M291.67,241.09A49,49,0,0,0,290,246a32.15,32.15,0,0,1-2.73,5.94,21.05,21.05,0,0,1-2.75,4.05,1.62,1.62,0,0,0-.55,1.59,1.75,1.75,0,0,0,1.71,1.16c4.83,0,9.65,0,14.48,0,.85,0,1.34-.74,1.73-1.43.51-.9,1-1.81,1.45-2.75"/><path class="cls-8" d="M210.75,236.6c-.24.24-.6.44-.71.73-2.49,5.89-4.52,11.91-4.8,18.38,0,1-.1,1.93-.14,2.9"/><path class="cls-8" d="M306.46,289.89c-5.21-1.4-15.92-6.22-19.86-9.39-1.62-1.21-9-6.89-11.59-9.85-.75-.75-.33-1.48-.24-2.19.26-2.12.78-5.07.9-7.24"/><path class="cls-8" d="M280.4,287.28a38.53,38.53,0,0,0-3.93,4.45c-2.88,4-1.1,10.33,3.5,11.75"/><path class="cls-8" d="M205.25,260.93c1.41-.54,1.81.6,2.29,1.46,1.7,3.06,3.42,6.11,4.92,9.27,2.88,6.07,6,12,9.21,17.91,2.11,3.92,7.38,15.14,8.3,16.07"/><path class="cls-8" d="M267.8,206.56c2.17-.34,4.22.45,6.22,1a55.45,55.45,0,0,1,8.84,3.14,73.64,73.64,0,0,1,8.52,4.83c1,.63,1,14.27,1.08,16.79"/><path class="cls-8" d="M306,235.22c-.38-2.88-2.89-4.39-5.15-5.28a1.76,1.76,0,0,0-2.34.85l-.07.18a15.42,15.42,0,0,0-1.63,6.79,5.26,5.26,0,0,0,2.78,4.47,2.24,2.24,0,0,0,2.45,0c.87-.52,1.76-1,2.6-1.6a1.53,1.53,0,0,1,1.6-.14"/><path class="cls-8" d="M230.44,231c-2,1-2.11,2.62-1.81,4.64a54.6,54.6,0,0,0,1.76,8c.15.49.5.82.6,1.29"/><path class="cls-8" d="M216.14,238.64a4.09,4.09,0,0,0-1.62,3.78c.33,2.27.72,4.55,1.16,6.81a25,25,0,0,0,.86,3,1.64,1.64,0,0,0,2.59,1A117.19,117.19,0,0,0,233.62,243c1.46-1.24,2.9-2.51,4.34-3.76"/><path class="cls-8" d="M257.37,366.64c-.37-.16-.65,0-1,.1a21,21,0,0,1-12,.31c-.42-.13-1.7-.75-2-.83"/><path class="cls-8" d="M210.46,241.38c.46,2,.24,4,.83,5.95.81,2.75,2.15,5.27,3.08,8"/><path class="cls-8" d="M282.42,257.17c0,1.25-.3,1.59-1.59,1.59H266.5c-.38,0-.8-.17-1.16.13"/><path class="cls-8" d="M284.6,290.18c-1.65,4.42-3.08,8.9-4.49,13.39-.56,1.77-2.29,6.59-2.87,8.35"/><path class="cls-8" d="M260.84,268.13c4.18,5.28,16.29,16.43,19.61,18.78a170.31,170.31,0,0,0,19.61,11.16"/><path class="cls-8" d="M303.28,254.13A98.92,98.92,0,0,1,291,246.45c-.23-.16-.48-.29-.72-.43"/><path class="cls-8" d="M304.87,249.35a23.36,23.36,0,0,1-7.53-5.07,14.88,14.88,0,0,0-8-4.08,5.57,5.57,0,0,0-4.06.89"/><path class="cls-8" d="M255,260.54c-.21-.52-43.49,0-50.12.11"/><path class="cls-8" d="M277.5,235c2,1.46,9.93,8.85,12.45,10.43"/><path class="cls-8" d="M253.46,243.56a68,68,0,0,0,5.52,7.52c3.81,5,7.69,9.87,11.58,14.77a62.9,62.9,0,0,0,4.45,4.83"/><path class="cls-8" d="M260.42,235.3A50,50,0,0,1,252.94,224c1.61-2.1,3-4.13,4.61-6,1.31-1.48.64-3.1.66-4.66,0-.53-.68-.41-1.12-.43a17,17,0,0,0-8.4,2"/><path class="cls-8" d="M237.19,210.49c.39.77,2,.47,2.67.49a3.57,3.57,0,0,1,3,1.17,1.06,1.06,0,0,1-.27,1.75,5.73,5.73,0,0,1-3.2.79c-3.57.22-12.87,2-13,2"/><path class="cls-8" d="M270.84,247.18a129.5,129.5,0,0,0,10.57,9.15,2.51,2.51,0,0,0,2.49.55"/><path class="cls-8" d="M285,241.28c-10,6.14-5,16.89-5.33,17.09"/><path class="cls-8" d="M227.4,232.7a71.91,71.91,0,0,1-11,5.94c-1.29.51-1.35.27-1.64-1-.56-2.49,0-4.94,0-7.4A3.81,3.81,0,0,1,216,227.3a37.05,37.05,0,0,0,3.22-3.87"/><path class="cls-8" d="M281.53,222.7a62.62,62.62,0,0,1-4.09,11.62,86.33,86.33,0,0,1-6,11.4,4.26,4.26,0,0,1-.71.73"/><path class="cls-8" d="M314.59,258.61a5,5,0,0,1-1.31,0c-3.35-.8-6.26-2.52-9.26-4.08a3.1,3.1,0,0,0-.6-.16,48.62,48.62,0,0,0,2.48-8.94c.31-1.45-.13-2.84.29-4.22a9.54,9.54,0,0,1,.6-1.87"/><path class="cls-8" d="M283.87,211.55c-.75,1.87-1.81,8.21-2.41,11.37"/><path class="cls-8" d="M237.54,215a67.72,67.72,0,0,0,1.74,7.24c.46,1.42.56,2.35,1.21,4.33a11.4,11.4,0,0,0,3,5.16c1.44,1.54,9.59,11.46,10,12.07"/><path class="cls-8" d="M260.56,236c3.27,3.49,6.17,7.32,9.7,10.57"/><path class="cls-8" d="M275.18,208.08c-.3,1.39-.6,2.82-1.77,3.73-.46.36-.76,1-.65,1.17.77,1.47-.28,2.55-.81,3.62-1.16,2.36-2.41,4.69-3.65,7a99,99,0,0,1-6.15,9.65,77.35,77.35,0,0,1-7.38,9.12,16.46,16.46,0,0,0-1,1.3"/><path class="cls-8" d="M268.23,224.59c3,3.27,5.76,6.78,9,9.85"/><path class="cls-8" d="M312.11,245.44c-.6.93-.12,2-.54,3.06-.6,1.44-1.76,2.41-3.22,2.12a9.29,9.29,0,0,1-2.9-.84"/><path class="cls-8" d="M291.62,240.51c.28-1.73.55-3.41.87-5.19.65-2.84-.75-4.31-2.82-5.67a72.55,72.55,0,0,1-7.88-6.32c-1.47-1.29-7.15-7.36-8.63-8.88"/><path class="cls-8" d="M257.08,232.26a22.43,22.43,0,0,1-3.76,8.83c-.22.3-.48.6-.72.87"/><path class="cls-8" d="M226.4,216.67c6,2.78,15,12.76,16,13.81"/><path class="cls-8" d="M262.71,218.22a7.24,7.24,0,0,0-2.59,2,1.65,1.65,0,0,0-.4,1.71,1.61,1.61,0,0,0,1.81.6,6.64,6.64,0,0,0,3.3-2.62"/><path class="cls-8" d="M270.7,212.13a4.7,4.7,0,0,1-4.49.89c-2-.69-3,.64-3.9,2.15"/><path class="cls-8" d="M297.34,234.58a49.23,49.23,0,0,0,7.09,3.46c1.95.72,3.72,2,5.94,1.88"/><path class="cls-8" d="M280.54,303.94c3.18,1.85,13.36,0,14-.66"/><path class="cls-8" d="M264.76,206.2a18.66,18.66,0,0,0-6.83-.31c-.34,0-1.07.51-1.21.45-2.22-1-3.18.27-4.14,1.73a56.11,56.11,0,0,1-3.47,4.63c-1,1.21-1.46,1.07-2.17-.42a29.43,29.43,0,0,1-1.58-4.35"/><path class="cls-8" d="M312,244.57c-1.15-.28-1.21-1.56-2.14-2.24-.6,1-.21,2.14-.6,3.12-.11.27-.52,1.85-1,1.85s-.75-.41-.9-1,0-1.55-1-1.75"/><path class="cls-8" d="M215.24,260.79a64.74,64.74,0,0,0-7.1-.14.89.89,0,0,0-1,.86"/><path class="cls-8" d="M270.41,247.32a79.88,79.88,0,0,1-7.24,8.4"/><path class="cls-8" d="M247,250a16,16,0,0,1-3.69,3.52c-1.21,1-2.41,2-3.7,3a1.81,1.81,0,0,1-2.06.24"/><path class="cls-8" d="M254.91,222c2.41,2.08,2.41,7.45,2.17,10.26"/><path class="cls-8" d="M245.36,207.93c.48,2,4.22,11.21,5.12,13a34.09,34.09,0,0,0,1.69,3c-2,3.29-4.83,5.91-7.39,8.76"/><path class="cls-8" d="M256.34,205.88c1.25,2.36,2.12,5.1,3.93,7.12"/><path class="cls-8" d="M214.51,230.09c-1.67.85-2.14,2.6-2.85,4.08-.94,2-.8,4.19-.77,6.35"/><path class="cls-8" d="M272.87,212.28a2,2,0,0,1-2-.87c-.68-1.13-1.54-1.6-3.12-4.16a1.89,1.89,0,0,0-3.17-.22c-1.48,2.23-2.78,4.07-4.31,6.38a6.84,6.84,0,0,0,1.67,2.46c1,1.18,5.69,8.39,6.87,9.42"/><path class="cls-8" d="M295.17,295.83a91.21,91.21,0,0,1-6.07,11"/><path class="cls-8" d="M244.05,218.79a26.81,26.81,0,0,0,5.5.72"/><path class="cls-8" d="M306.75,233c-.94,1.49-.74,3.16-.68,4.78,0,.25-.13.48,0,.72"/><path class="cls-8" d="M279.53,209.53c-1.06,2.14-2.94,1.41-4.63,1.3h-.43"/><path class="cls-8" d="M247.38,213.44a10.41,10.41,0,0,1-2.61,4.19,43.24,43.24,0,0,1-5.21,4.93"/><path class="cls-8" d="M236.67,211c.75,1.15.36,2.56.87,3.76"/><path class="cls-8" d="M227.84,228.79l-.14,4.05"/><path class="cls-8" d="M217,253.26c-.24.43-.23.85-.83,1.21-2,1.21-4.95,2.92-7,4"/><path class="cls-8" d="M305,229.08a4.05,4.05,0,0,1,0,3.19"/><path class="cls-8" d="M286.77,366.2c-.92.28-2.3-.68-3.22-.07"/><path class="cls-8" d="M292.07,231.24c0,.36,2,1.34,2.53,1.74s1.44.88,2.17,1.32"/><path class="cls-8" d="M214.22,240.66c-1.16-1.42-2.36-.1-3.46.1-.54.1-1.17.25-1.76.41"/><path class="cls-8" d="M235.94,256.14c-.49.88-1.52,1.33-1.88,2.32"/><path class="cls-8" d="M261.43,216.48c-1.5,1.81-1.81,1.91-3.19,1.16"/><path class="cls-8" d="M299.7,298.25c-10.09,10.59-23.58,16.15-39.52,16.15-30.55,0-55.31-24.31-55.31-54.3,0-14.52,4.83-26.93,14.26-36.66"/><path class="cls-8" d="M226.68,216.62c9.45-7.39,20.51-10.86,33.51-10.86,29.56,0,53.73,22.79,55.23,51.47"/><path class="cls-8" d="M315.42,257.26a22.22,22.22,0,0,1,17.66,8.68,23.1,23.1,0,0,1,5,9.29c1.54,6.47,0,12.18-4.31,17.24-3.8,4.44-8.75,6.64-14.35,7.49a40.1,40.1,0,0,1-18.52-1.69,1.93,1.93,0,0,0-2.11.75c-1.53,1.68-9.27,10.46-10.06,12-.42.82.52,1.09.8,2"/><path class="cls-8" d="M371,336.32c-.6.3-4.18-2.62-4.76-2.89a22.32,22.32,0,0,0-13.76-1.21c-5.61,1.12-10.76,3.55-16.07,5.51A49.08,49.08,0,0,1,324.54,341a21.23,21.23,0,0,1-14.62-3.41,2.76,2.76,0,0,1-1.21-2.62c.08-3.86,0-7.72,0-11.58a11.86,11.86,0,0,0-.1-3.05c-.29-1.12,2.23-3,3.29-2.58a.83.83,0,0,1,.44.86,27.54,27.54,0,0,1-.14,4.22"/><path class="cls-8" d="M370.59,320.24a28.81,28.81,0,0,0-6.94-3.51,25.91,25.91,0,0,0-13.61.36c-5.31,1.45-10.34,3.73-15.51,5.6a42.15,42.15,0,0,1-10,2.61,20.1,20.1,0,0,1-11.91-2,19.84,19.84,0,0,0-3.58-1.66"/><path class="cls-8" d="M293.12,334.87c0,.83.6,1.09,1.15,1.46,3,1.94,6.15,1.94,9.41,1.12a19.68,19.68,0,0,0,3.75-1.46,2.69,2.69,0,0,1,1-.25"/><path class="cls-8" d="M293.88,321.67a13.51,13.51,0,0,0,10.26,1.59,19.68,19.68,0,0,0,3.75-1.46,2.69,2.69,0,0,1,1-.25"/><path class="cls-8" d="M370.59,320.24a12.5,12.5,0,0,0-6.53-.05,32.48,32.48,0,0,0-7.84,2.92,15.18,15.18,0,0,0-2.55.92"/><path class="cls-8" d="M354.37,324.15a3.57,3.57,0,0,1,2,.42c4,2,7.84,4.28,10.86,7.7a30,30,0,0,0,3.49,3.62"/><line class="cls-8" x1="266.93" y1="260.93" x2="314.99" y2="260.65"/><line class="cls-8" x1="205.1" y1="258.61" x2="253.45" y2="258.52"/><line class="cls-8" x1="265.33" y1="258.72" x2="314.56" y2="258.61"/><text class="cls-9" transform="translate(235.63 376.9)">G</text><text class="cls-9" transform="translate(256.63 377.52)">G</text><text class="cls-9" transform="translate(279.13 377.27)">J</text></svg>